<?xml version="1.0" encoding="UTF-8"?>
<svg id="Layer_1" data-name="Layer 1" xmlns="http://www.w3.org/2000/svg" viewBox="0 0 1080 1080">
  <defs>
    <style>
      .cls-1 {
        fill: #583b96;
      }
    </style>
  </defs>
  <g>
    <path class="cls-1" d="m533.74,395.26h-14.66c-8.77,0-15.86,7.12-15.86,15.86v61.76c-15.14-7.71-28.98-9.32-38.64-9.32-38.67,0-71.83,27.68-71.83,76.97,0,52.82,37.37,77.31,69.22,77.31,22.57,0,35.45-10.31,41.24-14.83v11.92h3.25c23.81,0,43.12-19.32,43.12-43.12v-160.68c0-8.73-7.09-15.86-15.86-15.86Zm-62.55,182.84c-21.48,0-38.88-17.4-38.88-38.88s17.4-38.88,38.88-38.88,38.84,17.43,38.84,38.88-17.4,38.88-38.84,38.88Z"/>
    <path class="cls-1" d="m840.06,478.46c-4.21-4.73-9.8-8.46-15.79-10.48-46.51-15.72-73.47,14.69-83.92,27.13-2.57-5.14-5.48-10.93-13.53-18.02-12.54-11.27-28.98-13.53-39.6-13.53-14.49,0-32.54,4.18-52.17,21.89v-19.01h-3.25c-23.84,0-43.12,19.32-43.12,43.12v89.5c0,8.77,7.09,15.86,15.86,15.86h14.66c8.73,0,15.86-7.09,15.86-15.86v-83.68c15.45-17.06,29.29-18.98,35.73-18.98,8.39,0,19.01,3.87,24.49,13.53,3.87,7.09,3.87,14.15,3.87,22.2v66.93c0,8.77,7.09,15.86,15.86,15.86h14.97c8.77,0,15.86-7.09,15.86-15.86v-79.16c8.05-11.58,20.31-23.19,36.72-23.19,27.71,0,27.71,25.11,27.71,38.02v64.33c0,8.77,7.09,15.86,15.86,15.86h15.28c8.77,0,15.86-7.09,15.86-15.86v-73.68c0-16.44-1.64-29.56-17.19-46.93Z"/>
    <path class="cls-1" d="m950.53,517.98c-15.14-6.44-18.36-8.7-18.36-14.52,0-9.66,16.41-10.28,20.62-10.28,14.15,0,29.94,5.79,46.04,14.49v-.75c0-23.19-18.19-41.99-41.34-43.19-2.33-.1-4.76-.17-7.3-.17-39.29,0-60.52,20.93-60.52,46.04,0,15.79,8.05,28.36,19.63,35.45,6.13,3.53,9.66,5.14,24.8,11.58,22.54,9.35,28.33,11.58,28.33,19.97,0,6.13-7.06,11.27-22.54,11.27-4.35,0-10.28-.41-18.09-2.33-7.81-1.92-17.5-5.41-29.25-11.51,0,21.99,16.48,40.49,38.33,42.95,4.83.51,9.8.86,14.83.86,37.99,0,60.52-17.09,60.52-47.37s-26.41-40.9-55.69-52.48Z"/>
  </g>
  <g>
    <path class="cls-1" d="m531.36,700.67l-2.69-7.68h-16.21l-2.67,7.68h-6.81l13.83-38.12h7.51l13.78,38.12h-6.75Zm-16.82-13.56h12.08l-6.02-17.21-6.05,17.21Z"/>
    <path class="cls-1" d="m569.91,694.68h17.53v5.99h-25.21v-5.17l17.1-26.95h-16.72v-5.99h24.42v5.12l-17.13,27Z"/>
    <path class="cls-1" d="m620.88,694.68h16.88v5.99h-23.14v-38.12h22.87v5.99h-16.61v9.91h15.25v5.93h-15.25v10.29Z"/>
    <path class="cls-1" d="m686.98,700.67l-8.05-13.88h-7.41v13.88h-6.26v-38.12h15.25c3.41,0,6.31,1.19,8.69,3.57,2.38,2.38,3.57,5.27,3.57,8.69,0,2.43-.7,4.66-2.1,6.67-1.4,2.02-3.22,3.48-5.47,4.38l8.66,14.81h-6.86Zm-15.46-32.23v12.74h8.98c1.67,0,3.08-.62,4.25-1.85,1.16-1.23,1.74-2.74,1.74-4.52s-.58-3.28-1.74-4.52c-1.16-1.23-2.58-1.85-4.25-1.85h-8.98Z"/>
    <path class="cls-1" d="m742.84,680.9c1.67.87,2.98,2.07,3.92,3.59.94,1.53,1.41,3.29,1.41,5.28,0,3.12-1.11,5.72-3.32,7.79-2.22,2.07-4.92,3.1-8.11,3.1h-16.33v-38.12h15.14c3.12,0,5.76,1.01,7.92,3.02,2.16,2.01,3.24,4.53,3.24,7.54,0,3.3-1.29,5.9-3.87,7.79Zm-7.3-12.47h-8.87v10.02h8.87c1.38,0,2.54-.48,3.49-1.44.94-.96,1.42-2.15,1.42-3.57s-.47-2.6-1.42-3.57c-.94-.96-2.1-1.44-3.49-1.44Zm1.2,26.35c1.45,0,2.68-.52,3.68-1.55,1-1.03,1.5-2.29,1.5-3.78s-.5-2.75-1.5-3.78c-1-1.04-2.22-1.55-3.68-1.55h-10.07v10.67h10.07Z"/>
    <path class="cls-1" d="m800.24,700.67l-2.69-7.68h-16.21l-2.67,7.68h-6.81l13.83-38.12h7.51l13.78,38.12h-6.75Zm-16.82-13.56h12.08l-6.02-17.21-6.05,17.21Z"/>
    <path class="cls-1" d="m832.85,662.55h6.26v38.12h-6.26v-38.12Z"/>
    <path class="cls-1" d="m878.59,701.37c-5.92,0-10-2.32-12.25-6.97l5.39-3.16c1.23,2.69,3.54,4.03,6.91,4.03,2.18,0,3.86-.53,5.04-1.61,1.18-1.07,1.77-2.59,1.77-4.55v-26.57h6.26v26.57c0,3.92-1.24,6.94-3.7,9.07-2.47,2.12-5.61,3.19-9.42,3.19Z"/>
    <path class="cls-1" d="m944.48,700.67l-2.69-7.68h-16.21l-2.67,7.68h-6.81l13.83-38.12h7.51l13.78,38.12h-6.75Zm-16.82-13.56h12.08l-6.02-17.21-6.05,17.21Z"/>
    <path class="cls-1" d="m999.96,662.55h6.26v38.12h-4.9l-17.97-25.86v25.86h-6.26v-38.12h4.78l18.09,26.04v-26.04Z"/>
  </g>
  <path class="cls-1" d="m346.13,893.26c-139.33-13.21-249.64-123.96-262.29-263.35l43.76-3.97c10.74,118.34,104.39,212.37,222.68,223.58l-4.15,43.74Z"/>
  <path class="cls-1" d="m524.38,893.56l-3.65-43.79c67.44-5.62,130.42-39.34,172.77-92.52l34.37,27.37c-49.87,62.61-124.04,102.32-203.5,108.94Z"/>
  <path class="cls-1" d="m719.66,363.67c-39.48-76.18-113.95-125.86-199.19-132.87l3.6-43.79c100.41,8.26,188.11,66.74,234.6,156.44l-39.01,20.22Z"/>
  <path class="cls-1" d="m127.7,453.58l-43.74-4.16c13.17-138.49,123.22-248.7,261.7-262.05l4.22,43.74c-117.56,11.33-211,104.9-222.18,222.47Z"/>
  <path class="cls-1" d="m437.47,748.85h-35.92c-72.24,0-137.56-45.52-162.55-113.28l41.23-15.2c18.64,50.57,67.4,84.55,121.32,84.55h35.92v43.94Z"/>
  <path class="cls-1" d="m280.62,459.22l-41.1-15.54c25.32-66.95,90.44-111.93,162.04-111.93h35.36v43.94h-35.36c-53.44,0-102.04,33.57-120.94,83.54Z"/>
  <circle class="cls-1" cx="102.1" cy="534.72" r="28.17"/>
  <circle class="cls-1" cx="259.63" cy="534.72" r="28.17"/>
  <circle class="cls-1" cx="436.92" cy="207.99" r="28.17"/>
  <circle class="cls-1" cx="436.92" cy="871.39" r="28.17"/>
</svg>