<?xml version="1.0" encoding="UTF-8"?>
<svg id="Layer_1" data-name="Layer 1" xmlns="http://www.w3.org/2000/svg" viewBox="0 0 143.94 143.94">
  <defs>
    <style>
      .cls-1 {
        fill: #583b96;
      }
    </style>
  </defs>
  <g>
    <path class="cls-1" d="m71.32,57.28h-1.49c-.89,0-1.61.72-1.61,1.61v6.28c-1.54-.78-2.95-.95-3.93-.95-3.93,0-7.3,2.81-7.3,7.83,0,5.37,3.8,7.86,7.04,7.86,2.3,0,3.6-1.05,4.19-1.51v1.21h.33c2.42,0,4.39-1.96,4.39-4.39v-16.34c0-.89-.72-1.61-1.61-1.61Zm-6.36,18.59c-2.18,0-3.95-1.77-3.95-3.95s1.77-3.95,3.95-3.95,3.95,1.77,3.95,3.95-1.77,3.95-3.95,3.95Z"/>
    <path class="cls-1" d="m102.47,65.74c-.43-.48-1-.86-1.61-1.07-4.73-1.6-7.47,1.49-8.53,2.76-.26-.52-.56-1.11-1.38-1.83-1.27-1.15-2.95-1.38-4.03-1.38-1.47,0-3.31.42-5.3,2.23v-1.93h-.33c-2.42,0-4.39,1.96-4.39,4.39v9.1c0,.89.72,1.61,1.61,1.61h1.49c.89,0,1.61-.72,1.61-1.61v-8.51c1.57-1.73,2.98-1.93,3.63-1.93.85,0,1.93.39,2.49,1.38.39.72.39,1.44.39,2.26v6.81c0,.89.72,1.61,1.61,1.61h1.52c.89,0,1.61-.72,1.61-1.61v-8.05c.82-1.18,2.07-2.36,3.73-2.36,2.82,0,2.82,2.55,2.82,3.87v6.54c0,.89.72,1.61,1.61,1.61h1.55c.89,0,1.61-.72,1.61-1.61v-7.49c0-1.67-.17-3.01-1.75-4.77Z"/>
    <path class="cls-1" d="m113.71,69.76c-1.54-.65-1.87-.88-1.87-1.48,0-.98,1.67-1.04,2.1-1.04,1.44,0,3.04.59,4.68,1.47v-.08c0-2.36-1.85-4.27-4.2-4.39-.24-.01-.48-.02-.74-.02-4,0-6.15,2.13-6.15,4.68,0,1.61.82,2.88,2,3.6.62.36.98.52,2.52,1.18,2.29.95,2.88,1.18,2.88,2.03,0,.62-.72,1.15-2.29,1.15-.44,0-1.04-.04-1.84-.24-.79-.2-1.78-.55-2.97-1.17,0,2.24,1.68,4.12,3.9,4.37.49.05,1,.09,1.51.09,3.86,0,6.15-1.74,6.15-4.82s-2.69-4.16-5.66-5.34Z"/>
  </g>
  <g>
    <path class="cls-1" d="m71.08,88.34l-.27-.78h-1.65l-.27.78h-.69l1.41-3.88h.76l1.4,3.88h-.69Zm-1.71-1.38h1.23l-.61-1.75-.62,1.75Z"/>
    <path class="cls-1" d="m75,87.73h1.78v.61h-2.56v-.53l1.74-2.74h-1.7v-.61h2.48v.52l-1.74,2.75Z"/>
    <path class="cls-1" d="m80.19,87.73h1.72v.61h-2.35v-3.88h2.33v.61h-1.69v1.01h1.55v.6h-1.55v1.05Z"/>
    <path class="cls-1" d="m86.91,88.34l-.82-1.41h-.75v1.41h-.64v-3.88h1.55c.35,0,.64.12.88.36.24.24.36.54.36.88,0,.25-.07.47-.21.68-.14.2-.33.35-.56.45l.88,1.51h-.7Zm-1.57-3.28v1.3h.91c.17,0,.31-.06.43-.19.12-.13.18-.28.18-.46s-.06-.33-.18-.46c-.12-.13-.26-.19-.43-.19h-.91Z"/>
    <path class="cls-1" d="m92.59,86.33c.17.09.3.21.4.37.1.16.14.33.14.54,0,.32-.11.58-.34.79-.23.21-.5.32-.83.32h-1.66v-3.88h1.54c.32,0,.59.1.81.31.22.2.33.46.33.77,0,.34-.13.6-.39.79Zm-.74-1.27h-.9v1.02h.9c.14,0,.26-.05.35-.15.1-.1.14-.22.14-.36s-.05-.26-.14-.36c-.1-.1-.21-.15-.35-.15Zm.12,2.68c.15,0,.27-.05.37-.16.1-.11.15-.23.15-.38s-.05-.28-.15-.38c-.1-.11-.23-.16-.37-.16h-1.02v1.09h1.02Z"/>
    <path class="cls-1" d="m98.42,88.34l-.27-.78h-1.65l-.27.78h-.69l1.41-3.88h.76l1.4,3.88h-.69Zm-1.71-1.38h1.23l-.61-1.75-.62,1.75Z"/>
    <path class="cls-1" d="m101.74,84.46h.64v3.88h-.64v-3.88Z"/>
    <path class="cls-1" d="m106.39,88.41c-.6,0-1.02-.24-1.25-.71l.55-.32c.13.27.36.41.7.41.22,0,.39-.05.51-.16.12-.11.18-.26.18-.46v-2.7h.64v2.7c0,.4-.13.71-.38.92-.25.22-.57.32-.96.32Z"/>
    <path class="cls-1" d="m113.09,88.34l-.27-.78h-1.65l-.27.78h-.69l1.41-3.88h.76l1.4,3.88h-.69Zm-1.71-1.38h1.23l-.61-1.75-.62,1.75Z"/>
    <path class="cls-1" d="m118.73,84.46h.64v3.88h-.5l-1.83-2.63v2.63h-.64v-3.88h.49l1.84,2.65v-2.65Z"/>
  </g>
  <path class="cls-1" d="m52.25,107.92c-14.17-1.34-25.38-12.61-26.67-26.78l4.45-.4c1.09,12.03,10.61,21.59,22.64,22.73l-.42,4.45Z"/>
  <path class="cls-1" d="m70.37,107.95l-.37-4.45c6.86-.57,13.26-4,17.57-9.41l3.49,2.78c-5.07,6.37-12.61,10.4-20.69,11.08Z"/>
  <path class="cls-1" d="m90.23,54.07c-4.02-7.75-11.59-12.8-20.26-13.51l.37-4.45c10.21.84,19.13,6.79,23.86,15.91l-3.97,2.06Z"/>
  <path class="cls-1" d="m30.04,63.21l-4.45-.42c1.34-14.08,12.53-25.29,26.61-26.65l.43,4.45c-11.95,1.15-21.46,10.67-22.59,22.62Z"/>
  <path class="cls-1" d="m61.54,93.24h-3.65c-7.35,0-13.99-4.63-16.53-11.52l4.19-1.55c1.9,5.14,6.85,8.6,12.34,8.6h3.65v4.47Z"/>
  <path class="cls-1" d="m45.59,63.79l-4.18-1.58c2.57-6.81,9.2-11.38,16.48-11.38h3.6v4.47h-3.6c-5.43,0-10.38,3.41-12.3,8.49Z"/>
  <circle class="cls-1" cx="27.43" cy="71.46" r="2.86"/>
  <circle class="cls-1" cx="43.45" cy="71.46" r="2.86"/>
  <circle class="cls-1" cx="61.48" cy="38.24" r="2.86"/>
  <circle class="cls-1" cx="61.48" cy="105.7" r="2.86"/>
</svg>